<svg width="34" height="37" viewBox="0 0 34 37" fill="none" xmlns="http://www.w3.org/2000/svg">
<path d="M16.9979 29.7482H29.6266C30.1184 29.7757 30.6091 29.6772 31.0518 29.462C31.4945 29.2469 31.8746 28.9223 32.1557 28.5192C32.4369 28.1161 32.6097 27.648 32.6578 27.1595C32.706 26.6709 32.6277 26.1782 32.4305 25.7284C31.7629 23.7175 29.1018 21.3056 29.1018 18.9325C29.1018 13.6651 29.1018 12.2789 26.4982 9.18133C25.6557 8.18428 24.611 7.37617 23.4328 6.81007L21.9808 6.10775C21.7372 5.96118 21.527 5.76543 21.3638 5.53307C21.2006 5.30071 21.088 5.03688 21.0332 4.75856C20.8881 3.82042 20.3903 2.97241 19.641 2.38654C18.8916 1.80066 17.9467 1.52078 16.9979 1.60366C16.0663 1.5479 15.1472 1.84026 14.4203 2.42364C13.6933 3.00701 13.2107 3.83952 13.0665 4.75856C13.0012 5.04649 12.8731 5.31659 12.6914 5.54973C12.5097 5.78288 12.2788 5.97338 12.0151 6.10775L10.5631 6.81007C9.38556 7.37639 8.34154 8.18448 7.49953 9.18133C4.89776 12.2789 4.89776 13.6651 4.89776 18.9325C4.89776 21.3056 2.35719 23.4754 1.68959 25.6064C1.28718 26.8946 1.06465 29.7482 4.43415 29.7482H16.9979Z" stroke="current" stroke-width="1.39272" stroke-linecap="round" stroke-linejoin="round"/>
<path d="M23.0491 29.7482C23.065 30.5445 22.9193 31.3359 22.6208 32.0747C22.3224 32.8135 21.8772 33.4847 21.3122 34.0479C20.7471 34.6111 20.0737 35.0547 19.3323 35.3522C18.591 35.6496 17.797 35.7948 16.998 35.7789C16.1989 35.7958 15.4045 35.6514 14.6628 35.3543C13.9211 35.0571 13.2474 34.6135 12.6822 34.0501C12.1171 33.4867 11.6722 32.8151 11.3743 32.0758C11.0764 31.3365 10.9317 30.5447 10.9489 29.7482" stroke="current" stroke-width="1.39272" stroke-linecap="round" stroke-linejoin="round"/>
</svg>
