<svg width="34" height="37" viewBox="0 0 34 37" fill="none" xmlns="http://www.w3.org/2000/svg">
<path d="M16.9979 29.7482H29.6266C30.1184 29.7757 30.6091 29.6772 31.0518 29.462C31.4945 29.2469 31.8746 28.9223 32.1557 28.5192C32.4369 28.1162 32.6097 27.648 32.6578 27.1595C32.706 26.6709 32.6277 26.1782 32.4305 25.7284C31.7629 23.7175 29.1018 21.3056 29.1018 18.9325C29.1018 13.6651 29.1018 12.2789 26.4982 9.18134C25.6557 8.18429 24.611 7.37618 23.4328 6.81008L21.9808 6.10777C21.7372 5.9612 21.527 5.76544 21.3638 5.53308C21.2006 5.30072 21.088 5.0369 21.0332 4.75857C20.8881 3.82043 20.3903 2.97243 19.641 2.38655C18.8916 1.80068 17.9467 1.5208 16.9979 1.60367C16.0663 1.54792 15.1472 1.84027 14.4203 2.42365C13.6933 3.00703 13.2107 3.83953 13.0665 4.75857C13.0012 5.0465 12.8731 5.3166 12.6914 5.54975C12.5097 5.7829 12.2788 5.9734 12.0151 6.10777L10.5631 6.81008C9.38556 7.3764 8.34154 8.1845 7.49953 9.18134C4.89776 12.2789 4.89776 13.6651 4.89776 18.9325C4.89776 21.3056 2.35719 23.4754 1.68959 25.6064C1.28718 26.8946 1.06465 29.7482 4.43415 29.7482H16.9979Z" stroke="#8C8C8C" stroke-width="1.39272" stroke-linecap="round" stroke-linejoin="round"/>
<path d="M23.0491 29.7482C23.065 30.5445 22.9193 31.3358 22.6208 32.0747C22.3224 32.8135 21.8772 33.4846 21.3122 34.0478C20.7471 34.611 20.0737 35.0547 19.3323 35.3521C18.591 35.6496 17.797 35.7948 16.998 35.7789C16.1989 35.7958 15.4045 35.6513 14.6628 35.3542C13.9211 35.0571 13.2474 34.6135 12.6822 34.0501C12.1171 33.4866 11.6722 32.815 11.3743 32.0757C11.0764 31.3364 10.9317 30.5447 10.9489 29.7482" stroke="#8C8C8C" stroke-width="1.39272" stroke-linecap="round" stroke-linejoin="round"/>
</svg>
