<svg width="14" height="15" viewBox="0 0 14 15" fill="none" xmlns="http://www.w3.org/2000/svg">
<path d="M5.17324 0.202703C5.00645 0.296054 4.9627 0.404963 4.95449 0.762806L4.94355 1.08331H3.87715C2.69863 1.08331 2.68496 1.08642 2.56191 1.28246C2.50449 1.37581 2.50176 1.41004 2.49355 2.16306L2.48535 2.95032H8.24395H14.0025L13.9943 2.16306C13.9834 1.00241 14.0846 1.08331 12.608 1.08331H11.5389V0.800146C11.5389 0.345841 11.4213 0.165363 11.1287 0.165363C10.8361 0.165363 10.7186 0.345841 10.7186 0.800146V1.08331H9.67949H8.64043V0.800146C8.64043 0.345841 8.52285 0.165363 8.23027 0.165363C7.9377 0.165363 7.82012 0.345841 7.82012 0.800146V1.08331H6.79473H5.76934V0.793923C5.76934 0.554323 5.7584 0.488978 5.70645 0.386293C5.5998 0.171587 5.37012 0.090683 5.17324 0.202703Z" fill="#FFA868"/>
<path d="M2.44982 4.27585C2.34318 6.59094 1.50373 8.95581 0.28693 10.3685C0.158414 10.521 0.0381016 10.6797 0.0244297 10.7201C-0.0411953 10.9224 0.0490391 11.19 0.21857 11.2927C0.308805 11.3487 0.508414 11.3518 5.76388 11.3518C11.0877 11.3518 11.2162 11.3518 11.3147 11.2927C11.3694 11.2585 11.5033 11.1309 11.61 11.0033C12.3647 10.1227 13.0401 8.80956 13.4365 7.45287C13.7236 6.4758 13.9205 5.28714 13.9643 4.29452L13.9807 3.88377H8.22482H2.46896L2.44982 4.27585Z" fill="#FFA868"/>
<path d="M13.9207 8.66334C13.5488 9.69642 12.8488 10.91 12.1926 11.6599C11.8945 11.9959 11.7605 12.1111 11.5445 12.2044L11.3887 12.2698L6.93711 12.2791L2.48828 12.2853V13.0353C2.48828 13.7229 2.49375 13.7914 2.54297 13.9034C2.57852 13.9843 2.63594 14.0497 2.70703 14.0901C2.81367 14.1523 2.85742 14.1523 8.24414 14.1523C13.6309 14.1523 13.6746 14.1523 13.7813 14.0901C13.8523 14.0497 13.9098 13.9843 13.9453 13.9034C14 13.7821 14 13.7354 13.9945 11.1309L13.9863 8.47975L13.9207 8.66334Z" fill="#FFA868"/>
</svg>
