<svg width="15" height="14" viewBox="0 0 15 14" fill="none" xmlns="http://www.w3.org/2000/svg">
<path d="M0.667969 7V14H1.20643H1.74489V11.252C1.74489 9.73984 1.75566 8.50391 1.76643 8.50391C1.7772 8.50391 1.9172 8.54766 2.07156 8.59961C2.4772 8.73633 3.04079 8.87578 3.47156 8.94688C3.78028 8.99609 3.95258 9.00703 4.4731 9.00703C5.02951 9.0043 5.15156 8.99609 5.52848 8.93047C6.26079 8.80195 6.83515 8.61328 7.9372 8.14844C9.35874 7.54688 9.9331 7.40195 10.8808 7.39922C11.3259 7.39922 11.4803 7.41016 11.7603 7.46211C12.5644 7.6125 13.2823 7.86133 14.1223 8.28242L14.668 8.55586V4.78242V1.01172L14.4023 0.877734C13.7921 0.574219 12.8839 0.273438 12.1731 0.136719C11.6131 0.0273438 11.1428 -0.0109371 10.651 0.00820351C9.64592 0.0492191 8.85617 0.259766 7.39874 0.875C5.9772 1.47656 5.40284 1.62148 4.45515 1.62422C4.01361 1.62422 3.85566 1.61328 3.57566 1.56133C3.13053 1.4793 2.64951 1.34258 2.15053 1.15664L1.74489 1.00898V0.503125V0H1.20643H0.667969V7Z" fill="#FFA868"/>
</svg>
