<svg width="32" height="36" viewBox="0 0 32 36" fill="none" xmlns="http://www.w3.org/2000/svg">
<path d="M5.18842 34.4619C3.00389 34.4619 1.23291 32.6507 1.23291 30.4143V14.1464C1.23291 12.9173 1.77997 11.7529 2.71646 10.9859L13.5964 2.08126C14.2916 1.50754 15.1658 1.1936 16.0684 1.1936C16.9709 1.1936 17.8452 1.50754 18.5403 2.08126L29.4184 10.9859C30.3568 11.7529 30.9039 12.9173 30.9039 14.1464V30.4143C30.9039 32.6507 29.1329 34.4619 26.9483 34.4619H5.18842Z" stroke="current" stroke-width="1.39272" stroke-linecap="round" stroke-linejoin="round"/>
<path d="M11.4321 34.4619V24.2967C11.4321 23.3164 11.8229 22.3762 12.5184 21.683C13.214 20.9898 14.1573 20.6003 15.141 20.6003H16.9954C17.9791 20.6003 18.9224 20.9898 19.618 21.683C20.3135 22.3762 20.7043 23.3164 20.7043 24.2967V34.4619" stroke="current" stroke-width="1.39272" stroke-linecap="round" stroke-linejoin="round"/>
</svg>
