<svg width="32" height="36" viewBox="0 0 32 36" fill="none" xmlns="http://www.w3.org/2000/svg">
<path d="M5.18842 34.4619C3.00389 34.4619 1.23291 32.6507 1.23291 30.4143V14.1464C1.23291 12.9173 1.77997 11.7529 2.71646 10.9859L13.5964 2.08126C14.2916 1.50754 15.1658 1.1936 16.0684 1.1936C16.9709 1.1936 17.8452 1.50754 18.5403 2.08126L29.4185 10.9859C30.3568 11.7529 30.9039 12.9173 30.9039 14.1464V30.4143C30.9039 32.6507 29.1329 34.4619 26.9483 34.4619H5.18842Z" stroke="#8C8C8C" stroke-width="1.39272" stroke-linecap="round" stroke-linejoin="round"/>
<path d="M11.4324 34.462V24.2968C11.4324 23.3164 11.8231 22.3762 12.5187 21.683C13.2142 20.9898 14.1576 20.6004 15.1412 20.6004H16.9957C17.9793 20.6004 18.9227 20.9898 19.6182 21.683C20.3138 22.3762 20.7045 23.3164 20.7045 24.2968V34.462" stroke="#8C8C8C" stroke-width="1.39272" stroke-linecap="round" stroke-linejoin="round"/>
</svg>
