<svg width="14" height="14" viewBox="0 0 12 12" fill="none" xmlns="http://www.w3.org/2000/svg">
<path d="M0.815884 5.69701V9.99121H2.63388L2.72568 10.002C4.41348 10.3956 5.53188 10.6794 6.08928 10.8552C6.82968 11.0886 7.10568 11.1456 7.60788 11.1792C7.98348 11.205 8.41008 11.0604 8.60448 10.8624C8.71188 10.7532 8.79228 10.5288 8.82408 10.1808C8.83061 10.1078 8.85667 10.0379 8.89954 9.97849C8.9424 9.91905 9.00049 9.87225 9.06769 9.84301C9.21708 9.77821 9.34128 9.67261 9.44508 9.51901C9.54108 9.37861 9.60348 9.11701 9.61488 8.73841C9.61678 8.66878 9.63646 8.6008 9.67207 8.54093C9.70767 8.48107 9.75801 8.43131 9.81828 8.39641C10.1675 8.19421 10.3403 7.96621 10.3763 7.69861C10.4159 7.40281 10.3199 7.06981 10.0685 6.69061C10.0095 6.60168 9.98753 6.49325 10.0073 6.38837C10.027 6.28349 10.0868 6.19044 10.1741 6.12901C10.4147 5.95981 10.5467 5.72461 10.5797 5.39101C10.6325 4.85941 10.2935 4.46641 9.52608 4.38781C8.84261 4.31994 8.15248 4.37749 7.48968 4.55761C7.41449 4.57726 7.33525 4.57503 7.26129 4.55117C7.18733 4.52732 7.12171 4.48283 7.07217 4.42296C7.02263 4.36308 6.99122 4.29029 6.98164 4.21317C6.97206 4.13605 6.9847 4.05779 7.01808 3.98761C7.31808 3.35281 7.48488 2.82901 7.52388 2.42341C7.57488 1.88521 7.45068 1.49521 7.16028 1.17361C6.94008 0.930011 6.58788 0.790811 6.45588 0.819611C6.28188 0.856811 6.16848 0.957611 6.02088 1.31041C5.93388 1.51921 5.89188 1.69681 5.81988 2.11141C5.75088 2.50501 5.71308 2.68261 5.63448 2.91541C5.39748 3.62101 4.81608 4.35241 4.03548 4.85701C3.48796 5.20943 2.89515 5.48596 2.27328 5.67901C2.23437 5.69079 2.19394 5.69685 2.15328 5.69701H0.815884ZM0.790684 10.809C0.596884 10.8144 0.422884 10.7712 0.277084 10.6692C0.0910842 10.539 0.00348418 10.3338 0.00168418 10.0974L0.00348418 5.70361C-0.0169158 5.46961 0.0520842 5.25481 0.215284 5.09521C0.368284 4.94521 0.568084 4.87441 0.779284 4.87921H2.09028C2.62061 4.71027 3.12621 4.47179 3.59388 4.17001C4.22268 3.76321 4.68588 3.18001 4.86288 2.65441C4.92348 2.47321 4.95588 2.32321 5.01709 1.97041C5.09988 1.49701 5.15148 1.27681 5.27028 0.993611C5.51628 0.404411 5.83908 0.116411 6.28428 0.019811C6.72228 -0.074989 7.36009 0.177611 7.76328 0.624011C8.21029 1.11841 8.40768 1.73701 8.33449 2.50141C8.30289 2.82941 8.21208 3.19821 8.06209 3.60781C8.57435 3.5331 9.09386 3.52182 9.60888 3.57421C10.8131 3.69721 11.4893 4.48141 11.3909 5.47261C11.3477 5.89981 11.1929 6.26281 10.9295 6.54781C11.1509 6.97441 11.2391 7.39621 11.1839 7.80781C11.1203 8.28181 10.8563 8.67661 10.4171 8.98321C10.3829 9.39901 10.2875 9.73081 10.1183 9.97921C9.98456 10.1796 9.81069 10.35 9.60769 10.4796C9.54288 10.89 9.40668 11.211 9.18408 11.4366C8.81508 11.8122 8.15568 12.036 7.55328 11.9952C6.98148 11.9568 6.64308 11.8872 5.84508 11.6352C5.31888 11.469 4.22928 11.193 2.58708 10.809H0.790684ZM1.81128 5.51041C1.81113 5.45673 1.82156 5.40355 1.842 5.35391C1.86243 5.30427 1.89246 5.25915 1.93036 5.22114C1.96826 5.18312 2.01329 5.15296 2.06287 5.13238C2.11245 5.1118 2.1656 5.10121 2.21928 5.10121C2.27286 5.10137 2.32589 5.11208 2.37533 5.13273C2.42477 5.15338 2.46966 5.18356 2.50743 5.22156C2.54521 5.25956 2.57513 5.30462 2.59549 5.35418C2.61584 5.40375 2.62624 5.45683 2.62608 5.51041V10.1172C2.62616 10.1708 2.61569 10.2239 2.59526 10.2734C2.57483 10.3229 2.54484 10.3679 2.50701 10.4059C2.46918 10.4438 2.42424 10.4739 2.37477 10.4945C2.3253 10.5151 2.27226 10.5257 2.21868 10.5258C2.1651 10.5257 2.11207 10.5151 2.06259 10.4945C2.01312 10.4739 1.96819 10.4438 1.93036 10.4059C1.89253 10.3679 1.86254 10.3229 1.84211 10.2734C1.82168 10.2239 1.81121 10.1708 1.81128 10.1172V5.51041Z" fill="current"/>
</svg>
