<svg width="38" height="38" viewBox="0 0 38 38" fill="none" xmlns="http://www.w3.org/2000/svg">
<path d="M19.0686 26.713C21.0359 26.713 22.9226 25.9341 24.3137 24.5476C25.7048 23.1612 26.4863 21.2808 26.4863 19.3201C26.4863 17.3594 25.7048 15.479 24.3137 14.0926C22.9226 12.7062 21.0359 11.9273 19.0686 11.9273V26.713Z" fill="#8C8C8C"/>
<path fill-rule="evenodd" clip-rule="evenodd" d="M19.0685 0.837952C8.82647 0.837952 0.52417 9.11239 0.52417 19.3201C0.52417 29.5277 8.82647 37.8022 19.0685 37.8022C29.3106 37.8022 37.6129 29.5277 37.6129 19.3201C37.6129 9.11239 29.3106 0.837952 19.0685 0.837952ZM19.0685 4.53437V11.9272C17.1012 11.9272 15.2145 12.7061 13.8234 14.0925C12.4323 15.479 11.6508 17.3594 11.6508 19.3201C11.6508 21.2808 12.4323 23.1612 13.8234 24.5476C15.2145 25.934 17.1012 26.7129 19.0685 26.7129V34.1057C23.0031 34.1057 26.7766 32.548 29.5588 29.7751C32.341 27.0023 33.904 23.2415 33.904 19.3201C33.904 15.3987 32.341 11.6379 29.5588 8.865C26.7766 6.09215 23.0031 4.53437 19.0685 4.53437Z" fill="#8C8C8C"/>
</svg>
