<svg width="32" height="31" viewBox="0 0 32 31" fill="none" xmlns="http://www.w3.org/2000/svg">
<path d="M29.9489 30.9698L18.3364 19.3963C17.4092 20.1836 16.3429 20.7929 15.1376 21.2242C13.9322 21.6554 12.7206 21.871 11.5029 21.871C8.53329 21.871 6.01992 20.8465 3.96273 18.7975C1.90555 16.7484 0.876953 14.2441 0.876953 11.2845C0.876953 8.32487 1.90431 5.81932 3.95902 3.7678C6.01373 1.71629 8.52588 0.689297 11.4954 0.686833C14.465 0.684369 16.9796 1.70951 19.0393 3.76226C21.0989 5.815 22.1288 8.32056 22.1288 11.2789C22.1288 12.5628 21.9007 13.8054 21.4445 15.0068C20.9883 16.2081 20.3887 17.2357 19.6457 18.0896L31.2581 29.6612L29.9489 30.9698ZM11.5047 20.021C13.9649 20.021 16.0419 19.177 17.7356 17.4889C19.4293 15.8009 20.2762 13.7303 20.2762 11.2771C20.2762 8.82389 19.4293 6.75389 17.7356 5.06709C16.0419 3.38029 13.9649 2.53628 11.5047 2.53504C9.0445 2.53381 6.96691 3.37783 5.27196 5.06709C3.57701 6.75636 2.73015 8.82636 2.73139 11.2771C2.73262 13.7278 3.57948 15.7978 5.27196 17.4871C6.96444 19.1763 9.04141 20.0204 11.5029 20.0191" fill="#8C8C8C"/>
</svg>
