<svg width="14" height="14" viewBox="0 0 14 14" fill="none" xmlns="http://www.w3.org/2000/svg">
<path d="M6.6193 0.0377563C6.0318 0.153484 5.6279 0.481378 5.50142 0.950717C5.47694 1.04394 5.45654 1.27218 5.45654 1.46185C5.45654 1.74795 5.4647 1.79617 5.51774 1.7801C6.11748 1.60008 7.89629 1.60008 8.49602 1.7801C8.54906 1.79617 8.55722 1.74795 8.55722 1.46185C8.55722 1.06966 8.50418 0.844634 8.36547 0.626038C8.06356 0.150269 7.32103 -0.100474 6.6193 0.0377563Z" fill="#FFA868"/>
<path d="M6.45632 2.17875C4.43272 2.35877 2.85382 3.32317 2.20105 4.78905C1.92362 5.40948 1.89506 5.59914 1.8665 7.30612C1.83794 9.04203 1.8461 8.99703 1.49524 9.54995C1.22189 9.98071 1.01381 10.2154 0.279443 10.9033C-0.0265455 11.1894 -0.0795834 11.4627 0.112169 11.7584C0.210085 11.9063 0.33656 11.9963 0.560952 12.0767C0.744544 12.141 0.789423 12.1442 6.9867 12.141C12.0947 12.141 13.2574 12.1345 13.3839 12.0992C13.7674 11.9899 14.004 11.7231 13.9999 11.4048C13.9959 11.1798 13.9224 11.0705 13.5389 10.7201C12.9025 10.1382 12.4782 9.59174 12.266 9.07418C12.1763 8.8588 12.1722 8.79129 12.1436 7.29005C12.111 5.57342 12.0987 5.46091 11.8213 4.81155C11.3277 3.65106 10.2016 2.77025 8.70023 2.37485C8.03522 2.20126 7.1295 2.12089 6.45632 2.17875Z" fill="#FFA868"/>
<path d="M4.55908 12.6778C4.55908 12.7614 4.87731 13.1375 5.11802 13.3336C5.88911 13.9733 6.99883 14.1694 8.05551 13.848C8.67564 13.6615 9.2713 13.2147 9.52833 12.7453L9.57729 12.6585H7.06818C5.6892 12.6585 4.55908 12.6682 4.55908 12.6778Z" fill="#FFA868"/>
</svg>
