<svg width="31" height="31" viewBox="0 0 31 31" fill="none" xmlns="http://www.w3.org/2000/svg">
<path d="M15.4999 30.125C17.4551 30.1251 19.3904 29.7332 21.1914 28.9725C22.9924 28.2117 24.6227 27.0976 25.9857 25.6959C27.3487 24.2943 28.4169 22.6335 29.127 20.8119C29.8371 18.9903 30.1748 17.0449 30.1201 15.0905C28.0747 16.5141 25.6185 17.2267 23.1288 17.1187C20.6391 17.0107 18.2538 16.0881 16.3395 14.4927C14.4251 12.8973 13.0876 10.7174 12.5326 8.28795C11.9775 5.85855 12.2356 3.31409 13.2672 1.04562C9.6243 1.60701 6.32772 3.5232 4.03701 6.41083C1.7463 9.29846 0.630399 12.9446 0.912575 16.6196C1.19475 20.2947 2.85419 23.7277 5.55888 26.2318C8.26358 28.7359 11.814 30.1263 15.4999 30.125Z" stroke="current" stroke-width="1.5" stroke-linecap="round" stroke-linejoin="round"/>
</svg>
