<svg width="30" height="34" viewBox="0 0 30 34" fill="none" xmlns="http://www.w3.org/2000/svg">
<path d="M1 33V31C1 27.287 2.475 23.726 5.1005 21.1005C7.72601 18.475 11.287 17 15 17M15 17C18.713 17 22.274 18.475 24.8995 21.1005C27.525 23.726 29 27.287 29 31V33M15 17C17.1217 17 19.1566 16.1571 20.6569 14.6569C22.1571 13.1566 23 11.1217 23 9C23 6.87827 22.1571 4.84344 20.6569 3.34315C19.1566 1.84285 17.1217 1 15 1C12.8783 1 10.8434 1.84285 9.34315 3.34315C7.84285 4.84344 7 6.87827 7 9C7 11.1217 7.84285 13.1566 9.34315 14.6569C10.8434 16.1571 12.8783 17 15 17Z" stroke="current" stroke-width="1.5" stroke-linecap="round" stroke-linejoin="round"/>
</svg>
