<svg width="30" height="38" viewBox="0 0 30 38" fill="none" xmlns="http://www.w3.org/2000/svg">
<path d="M25.1528 37.6145H4.98398C3.75442 37.6145 2.57521 37.1277 1.70578 36.2612C0.836344 35.3947 0.3479 34.2194 0.3479 32.994V31.4655C0.3479 24.1299 6.95154 18.1584 15.0684 18.1584C23.1853 18.1584 29.7889 24.1262 29.7889 31.4655V32.994C29.7889 34.2194 29.3004 35.3947 28.431 36.2612C27.5616 37.1277 26.3824 37.6145 25.1528 37.6145ZM15.0684 20.0103C7.97333 20.0103 2.20233 25.1483 2.20233 31.4692V32.9977C2.20233 33.7329 2.4954 34.4381 3.01706 34.958C3.53872 35.4779 4.24625 35.77 4.98398 35.77H25.1528C25.8905 35.77 26.5981 35.4779 27.1197 34.958C27.6414 34.4381 27.9345 33.7329 27.9345 32.9977V31.4655C27.9345 25.1483 22.1635 20.0103 15.0684 20.0103ZM15.0684 15.3879C13.6291 15.3883 12.222 14.9632 11.0251 14.1666C9.82821 13.3699 8.89524 12.2373 8.34419 10.9122C7.79314 9.58701 7.64877 8.12874 7.92934 6.72179C8.20991 5.31485 8.90281 4.02243 9.92041 3.00798C10.938 1.99353 12.2346 1.30262 13.6462 1.02264C15.0578 0.742655 16.5211 0.886168 17.8508 1.43503C19.1806 1.98389 20.3172 2.91344 21.1168 4.10613C21.9165 5.29882 22.3433 6.70107 22.3433 8.13553C22.3419 10.0582 21.575 11.9017 20.211 13.2615C18.8471 14.6212 16.9975 15.386 15.0684 15.3879ZM15.0684 2.73321C13.9958 2.73284 12.9472 3.04953 12.0552 3.64321C11.1632 4.23688 10.4679 5.08088 10.0573 6.06844C9.64665 7.056 9.53911 8.14275 9.74828 9.19123C9.95744 10.2397 10.4739 11.2028 11.2324 11.9587C11.9908 12.7146 12.9571 13.2293 14.0091 13.4378C15.0612 13.6463 16.1516 13.5391 17.1424 13.1298C18.1333 12.7206 18.9802 12.0276 19.5758 11.1386C20.1715 10.2496 20.4893 9.20453 20.4889 8.13553C20.4874 6.7032 19.9159 5.32995 18.8996 4.31713C17.8834 3.30432 16.5056 2.73468 15.0684 2.73321Z" fill="#8C8C8C"/>
</svg>
